<svg version="1.1" xmlns="http://www.w3.org/2000/svg" xmlns:xlink="http://www.w3.org/1999/xlink" width="626" height="435" viewBox="0,0,626,435"><defs><linearGradient x1="220.50717" y1="216.37921" x2="220.50717" y2="255.04695" gradientTransform="translate(-123.17513,-292.86124) scale(1.19355,1.19355)" gradientUnits="userSpaceOnUse" id="color-1"><stop offset="0" stop-color="#ff0000"/><stop offset="1" stop-color="#000000"/></linearGradient><linearGradient x1="238.55685" y1="79.4685" x2="238.55685" y2="237.24061" gradientTransform="translate(-32.57765,-60.17719) scale(0.30423,0.30423)" gradientUnits="userSpaceOnUse" id="color-2"><stop offset="0" stop-color="#000000"/><stop offset="1" stop-color="#000758"/></linearGradient></defs><g transform="translate(75.5,52.1875)"><g data-paper-data="{&quot;isPaintingLayer&quot;:true}" fill-rule="nonzero" stroke-linejoin="miter" stroke-miterlimit="10" stroke-dasharray="" stroke-dashoffset="0" style="mix-blend-mode: normal"><path d="M160,289.625v-245h146v245z" fill="#000000" stroke="none" stroke-width="0" stroke-linecap="butt"/><path d="M298.5,292.8125v-334h252v334z" fill="#474747" stroke="none" stroke-width="0" stroke-linecap="butt"/><path d="M-75.5,286.8125v-334h252v334z" fill="#474747" stroke="none" stroke-width="0" stroke-linecap="butt"/><path d="M159.5,286.8125v-245h124v245z" fill="#4c0000" stroke="none" stroke-width="0" stroke-linecap="butt"/><path d="M283.5,156.3125c0,8.00813 -4.02943,14.5 -9,14.5c-4.97057,0 -9,-6.49187 -9,-14.5c0,-8.00813 4.02943,-14.5 9,-14.5c4.97056,0 9,6.49187 9,14.5z" fill="#f5f900" stroke="none" stroke-width="0" stroke-linecap="butt"/><path d="M105.5,45.8125v-98h252v98z" fill="#474747" stroke="none" stroke-width="0" stroke-linecap="butt"/><path d="M-35.5,381.8125v-95h549v95z" fill="#481d1d" stroke="#000000" stroke-width="2" stroke-linecap="butt"/><path d="M82.5,85.3125c2.5,0 2.5,2.5 2.5,2.5l-0.1903,3.95671c-0.72769,0.78587 -1.63601,1.43683 -2.18307,2.35762c-0.5384,0.90622 -0.44721,2.10249 -1,3c-0.13714,0.22266 -4.3643,4.51189 -4.66485,4.71378c-1.17079,0.78645 -2.71892,0.94901 -3.80727,1.84609c-1.80229,1.48556 -2.47483,4.2264 -4.52037,5.35375c-1.73355,0.9554 -4.1253,0.78354 -5.68739,1.90288c0.43595,2.15997 0.53628,4.34787 -0.05401,6.59364c-0.30553,1.16237 -1.61837,1.86035 -2,3c-0.34685,1.03581 0.3673,2.28879 -0.10141,3.27547c-0.46778,0.98471 -5.79803,5.49128 -6.27602,6.07469c-1.00461,1.22619 -1.59686,2.74109 -2.47632,4.05993c-1.20939,1.8136 -4.38107,5.68231 -5.22407,7.85748c-2.31458,5.97224 0.03404,12.68264 -1.9432,18.79854c-0.41503,1.17459 -0.55389,2.48734 -1.24508,3.52376c-2.64578,3.96728 -7.23713,5.32149 -10.40859,8.50181c-1.07755,1.08056 -1.78964,2.47275 -2.71804,3.68387c-0.85404,1.11412 -2.18437,1.95881 -2.62829,3.29057c-0.97085,2.91256 0.12829,6.13932 0.12829,9.20943c0,9.42465 1.18706,18.6156 0.99966,28.04102c-0.0826,4.1544 0.1692,6.82617 -2.55561,10.53082c-0.92335,1.25538 -2.54834,1.79451 -3.81806,2.69803c-3.99474,2.84264 -7.53496,4.50383 -12.16929,6.03983c-1.10073,0.5215 -2.39346,0.75347 -3.3022,1.5645c-2.18375,1.94896 -3.14923,4.93585 -4.80088,7.3523c-0.80446,1.17697 -1.92273,2.17781 -2.4609,3.49796c-0.28665,0.70317 0.09429,1.5163 0.10727,2.27554c0.04558,2.66628 0.05665,5.33394 0,8c-0.03512,1.65308 0.4573,3.43536 -0.1903,4.95671c-1.39847,3.28529 -7.08336,6.78059 -9.67169,8.93193c-3.07074,2.55229 -6.7213,6.02503 -9.05316,9.30727c-3.15977,4.44758 -3.57091,6.33018 -8.79427,8.1758c0,0 -2.37171,0.79057 -3.16228,-1.58114c-0.79057,-2.37171 1.58114,-3.16228 1.58114,-3.16228c4.24357,-1.29372 3.57377,-2.5312 6.35068,-6.39913c2.55663,-3.56111 6.45461,-7.32145 9.80188,-10.1178c1.95266,-1.63128 4.01621,-3.13657 5.87024,-4.87913c0.79946,-0.75139 2.02176,-1.18228 2.45807,-2.18894c0.4042,-0.93258 -0.16285,-2.02725 -0.1903,-3.04329c-0.08275,-3.06279 -0.97131,-8.83767 0.10727,-11.72446c0.19855,-0.53141 5.33367,-8.20794 5.85961,-8.98279c0.9481,-1.39682 1.60589,-3.05782 2.87862,-4.16694c1.32978,-1.15884 3.13187,-1.62367 4.6978,-2.4355c4.3214,-1.44813 7.45757,-2.94786 11.22591,-5.52394c0.9038,-0.61785 2.11442,-0.87416 2.78674,-1.7382c2.42765,-3.11989 1.4442,-8.88555 1.44405,-12.42817c-0.00033,-7.70158 -1,-15.25516 -1,-23c0,-0.92133 -0.03692,-10.29494 0.12829,-10.79057c0.12802,-0.38407 6.22468,-8.59757 6.65367,-9.02556c3.66452,-3.65602 8.7144,-4.62149 10.34633,-9.97444c2.12938,-6.14768 -0.35399,-12.76713 2.01796,-19.00727c1.1283,-2.96834 3.9872,-6.23743 5.73623,-8.84673c0.97337,-1.45213 1.65795,-3.10423 2.76883,-4.45408c1.13058,-1.37378 2.56336,-2.46969 3.89773,-3.64652c0.52014,-0.45873 1.40676,-0.60898 1.65964,-1.25476c0.33137,-0.84624 -0.3875,-1.86193 -0.10141,-2.72453c0.37834,-1.14075 1.63792,-1.85399 2,-3c0.10834,-0.34291 0.18545,-0.69324 0.23519,-1.04969c-1.91926,-0.90113 -1.21417,-3.01642 -1.21417,-3.01642c0.24696,-0.65557 0.37057,-1.38867 0.56368,-2.07808c-0.81853,-2.64219 -2.10613,-5.29301 -2.61825,-7.52872c-0.41444,-1.80925 -0.80242,-3.71755 -0.97458,-5.63594c-0.21669,0.15801 -0.4828,0.29643 -0.80857,0.40502c-2.37171,0.79057 -3.16228,-1.58114 -3.16228,-1.58114c-0.83788,-2.52589 -0.98983,-5.25645 -1.92342,-7.74855c-0.40905,-1.09191 -1.42733,-1.86428 -1.93573,-2.91362c-3.45742,-7.13607 -5.13835,-15.16997 -7.59003,-22.66405c-0.55208,-1.68753 -1.29303,-3.3257 -1.6471,-5.06558c-0.45534,-2.2375 0.65962,-4.02933 -0.70751,-6.16702c-0.84383,-1.31943 -2.43334,-2.01964 -3.36723,-3.27693c-1.05198,-1.41627 -1.64223,-3.12397 -2.52278,-4.65273c-2.55815,-4.44132 -5.15066,-8.14462 -7.0754,-12.92785l-2.01897,-4.10133c-0.87966,-0.48583 -1.21183,-1.48234 -1.21183,-1.48234c-0.76057,-2.29785 -1.77873,-4.5092 -2.86436,-6.67254l-1,-2c0,0 -1.11803,-2.23607 1.11803,-3.3541c2.23607,-1.11803 3.3541,1.11803 3.3541,1.11803l1,2c1.11822,2.24402 2.16602,4.53518 2.99053,6.90297c0.67993,0.42682 1.01679,1.11178 1.01679,1.11178l2.18362,4.44427c1.84608,4.64471 4.37268,8.15206 6.84378,12.47183c0.77915,1.36205 1.26566,2.90128 2.20087,4.1613c1.05337,1.41921 2.82344,2.2616 3.70383,3.79414c1.31819,2.29462 0.77173,5.23843 1.29249,7.83298c0.2975,1.48218 0.97974,2.86038 1.45862,4.29427c2.41804,7.24024 3.94773,15.07135 7.30424,21.97609c0.56789,1.16822 1.64666,2.06447 2.10311,3.28057c0.70297,1.87289 0.99425,3.87263 1.43331,5.82848c0.19324,-1.03538 0.50351,-2.05001 0.96304,-3.02877c0.15797,-0.33646 4.34519,-6.15078 5.12792,-7.2414c2.08887,-4.13973 2.48848,-7.13394 2.64177,-11.71641c0.0228,-0.6817 0.46778,-1.41428 0.19029,-2.03737c-0.34458,-0.77374 -1.49073,-0.96553 -1.8658,-1.72496c-2.87511,-5.82142 -3.3245,-12.90346 -3.3245,-19.23175v-1c0,0 0,-2.5 2.5,-2.5c2.5,0 2.5,2.5 2.5,2.5v1c0,5.00524 0.5807,8.49361 1.9003,13.30103c0.31348,1.14203 0.23995,2.41081 0.7752,3.46722c0.46995,0.92754 1.77111,1.3007 2.1342,2.27504c0.46178,1.23915 0.16512,2.64047 0.19029,3.96263c0.1042,5.47324 -0.93833,9.40859 -3.35823,14.28359c-2.23926,3.14837 -5.2275,5.92351 -5.65269,9.94392c-0.43557,4.11855 1.16963,8.06355 2.5445,12.02661c0.78532,-0.42728 1.60104,-0.80764 2.40046,-1.18236c0.73975,-0.34675 1.68895,0.03437 2.43182,-0.30564c1.75939,-0.80529 1.99884,-3.40078 3.47963,-4.64625c2.30766,-1.94094 5.84805,-2.54841 7.52788,-5.44013c0.9092,-1.56514 1.47415,-3.4286 2.81693,-4.64238l-0.1903,-2.04329c0,0 0,-2.5 2.5,-2.5z" fill="#1d4722" stroke="none" stroke-width="0.5" stroke-linecap="butt"/><path d="M13.5,-28.6875c2.5,0 2.5,2.5 2.5,2.5v1c-0.02352,1.89404 0.66304,3.73002 0.96772,5.59954c0.14353,0.88073 -0.36159,1.83093 -0.07499,2.676c0.38601,1.13817 1.67239,1.84366 2,3c0.39295,1.38696 -0.12966,2.89705 0.07499,4.324c0.349,2.4335 1.73658,4.65225 2.01355,7.095c0.02344,0.20672 0.01873,8.38632 0.01873,9.30546c0,0 0,2.5 -2.5,2.5c-2.5,0 -2.5,-2.5 -2.5,-2.5c0,-2.89819 0.33123,-5.81325 0.01873,-8.69454c-0.25824,-2.38106 -1.64905,-4.53387 -1.98645,-6.905c-0.17265,-1.21336 0.41455,-2.49839 0.07499,-3.676c-0.33298,-1.1548 -1.62531,-1.85805 -2,-3c-0.34552,-1.05305 0.11074,-2.23139 -0.07499,-3.324c-0.36215,-2.13049 -1.01177,-4.2395 -1.03228,-6.40046v-1c0,0 0,-2.5 2.5,-2.5z" fill="#1d4722" stroke="none" stroke-width="0.5" stroke-linecap="butt"/><path d="M183.26777,-30.95527c1.76777,1.76777 0,3.53553 0,3.53553l-1.64114,1.54656c-0.7008,2.26677 -1.96162,4.32544 -2.7815,6.5519c-0.6318,1.71574 -1.75722,8.2728 -2.38952,9.60564c-0.79333,1.67229 -2.20373,2.97444 -3.3056,4.46166c-1.1637,1.41271 -2.09992,3.04878 -3.49111,4.23813c-4.02037,3.43707 -9.51171,4.64013 -14.23225,6.6551c-3.07424,1.31224 -5.9002,3.16019 -8.96993,4.48293c-2.13643,0.92058 -4.6078,0.90172 -6.72496,1.8658c-2.08845,0.95101 -4.8928,6.94138 -5.81863,8.58138c-4.70772,8.33914 -10.9985,18.55031 -10.91311,28.24312c0,0 0,2.09158 -1.91312,2.4485c0.0411,5.19037 -0.08688,10.39143 -0.08688,15.5515c0,5.08601 0.15431,9.64939 -1.07464,14.60634c-0.3366,1.35767 -1.53734,6.79174 -2.492,7.97863c-0.82688,1.02803 -2.21838,1.42968 -3.35179,2.10494c-2.7186,1.61967 -5.41136,3.30081 -7.94356,5.19872c-2.81163,2.81163 -5.96697,5.15041 -8.87024,7.87913c-0.45697,0.42949 -1.27811,0.58819 -1.45807,1.18894c-0.57833,1.93067 0.1903,4.02786 0.1903,6.04329c0,4.33303 0.01665,8.667 0,13c-0.01068,2.77886 0.29294,4.76213 -1.37337,7.31433c-0.79476,1.21728 -1.86237,2.35998 -3.16992,2.99537c-0.83319,0.40488 -1.97072,-0.56152 -2.77706,-0.10551c-0.77971,0.44094 -0.71336,1.66082 -1.24629,2.38079c-1.37061,1.85164 -2.56985,3.82443 -3.82398,5.75686c-1.62362,2.50177 -4.07486,4.41115 -6.61215,6.0443c-0.04144,2.96728 -0.52649,6.3377 -0.02951,9.21341c0.17951,1.0387 0.85438,1.95602 1,3c0.70278,5.03823 -0.14524,9.52281 1.85461,14.47483c2.07731,5.14383 6.48678,11.14383 10.35825,15.07478c0.67321,0.68356 1.84638,0.81701 2.38531,1.61075c1.01905,1.50089 1.22533,3.43344 2.11352,5.01528c0.89168,1.58806 2.57545,2.72061 3.1923,4.43424c0.54103,1.50302 0.08553,3.19371 0.12829,4.79057c-0.00009,9.48789 -0.69074,20.10999 2.39656,29.25617c5.58284,16.53926 21.5541,28.86822 24.56943,46.33283c0,0 0.411,2.46598 -2.05499,2.87698c-2.46598,0.411 -2.87698,-2.05499 -2.87698,-2.05499c-0.82987,-5.1975 -2.70659,-8.29508 -5.36802,-12.81082c-3.97018,-6.73635 -8.09384,-13.36311 -12.23598,-19.99516c-2.4428,-3.9112 -5.29248,-8.37005 -6.77085,-12.74974c-3.27027,-9.68822 -2.65908,-20.79948 -2.65917,-30.85528c0.04276,-1.06981 0.52204,-2.2138 0.12829,-3.20943c-0.55636,-1.40681 -2.06593,-2.24727 -2.8077,-3.56576c-0.74523,-1.32462 -0.77073,-2.99605 -1.60038,-4.26948c-0.40001,-0.61398 -1.38772,-0.58127 -1.90079,-1.10448c-3.53421,-3.60401 -6.70083,-8.36702 -9.27668,-12.68811c-2.37176,-3.97872 -3.87139,-8.23807 -4.52401,-12.85728c-0.32199,-2.27904 0.34748,-4.62768 0.01355,-6.905c-0.15293,-1.04294 -0.83216,-1.95936 -1,-3c-0.53124,-3.29385 -0.03228,-7.05943 -0.03228,-10.40046v-0.57325c-0.15325,-0.68198 0.03647,-1.24461 0.30805,-1.66781c0.22456,-0.45343 0.61283,-0.90843 1.28413,-1.12632c2.20328,-1.31007 4.46014,-2.8097 5.79844,-4.97445c1.64599,-2.66244 4.08878,-8.09183 6.92973,-9.86235c0.91223,-0.56852 2.18623,0.17845 3.22294,-0.10551c0.84473,-0.23138 1.45441,-2.83221 1.48899,-3.09076c0.66025,-4.93706 -0.03228,-10.60125 -0.03228,-15.59954c0,-1.44449 -0.03836,-7.30661 0.1903,-7.95671c0.41918,-1.19173 1.66889,-1.89796 2.54193,-2.81106c2.86741,-2.99898 6.21338,-5.20448 9.12976,-8.12087c2.79086,-2.09434 5.67228,-4.09799 8.73887,-5.76267c0.63754,-0.34608 1.50583,-0.37271 1.96578,-0.93367c1.3119,-1.60004 1.00185,-4.01512 1.508,-6.02137c1.14026,-4.51966 0.92536,-8.73732 0.92536,-13.39366c0,-10.5356 0.5185,-21.21177 -0.974,-31.64037c-0.60194,-4.20597 -3.04787,-7.82441 -3.97343,-11.84963c-0.40861,-1.77703 -0.21452,-3.68423 -0.79836,-5.41163c-3.18877,-4.72007 -5.37123,-9.00656 -7.13295,-14.32921c-1.22442,-3.69932 -3.42099,-7.47848 -4.08899,-11.36872c-0.57613,-3.35526 -0.60202,-6.6965 -1.01355,-10.095c-0.50819,-4.19674 -3.07937,-7.79331 -3.96616,-11.79545c-0.84551,-3.81587 -0.05257,-8.60077 -0.05257,-12.51001v-3c0,0 0,-2.5 2.5,-2.5c2.5,0 2.5,2.5 2.5,2.5v3c0,3.53314 -0.85025,8.07698 -0.05257,11.48999c0.96411,4.12509 3.47345,7.84786 4.03384,12.20455c0.42821,3.32903 0.45479,6.60088 0.98645,9.905c0.57471,3.57168 2.79788,7.25975 3.91101,10.63128c1.6803,5.08937 3.86313,9.11217 6.86705,13.67079c0.7004,2.11963 0.7156,4.40957 1.20164,6.58837c0.9146,4.09996 3.38668,7.84434 4.02657,12.15037c0.11941,0.80356 0.22665,1.60877 0.32286,2.41544c2.30946,-6.58802 5.98686,-12.95516 9.26216,-18.75695c1.69578,-3.00387 4.42366,-8.73559 7.70923,-10.47435c2.2337,-1.1821 4.95805,-1.12508 7.27504,-2.1342c3.71879,-1.61965 5.14261,-2.84606 8.91861,-4.46134c4.15908,-1.77915 9.40361,-2.80275 12.94107,-5.85188c1.13857,-0.98139 1.87372,-2.35096 2.81059,-3.52644c0.90748,-1.17241 2.09004,-2.17628 2.72244,-3.51723c1.34555,-2.85311 1.13744,-6.23632 2.21887,-9.19964c0.92719,-2.54068 2.3197,-4.89723 3.2185,-7.4481l2.35886,-2.45344c0,0 1.76777,-1.76777 3.53553,0z" fill="#1d4722" stroke="none" stroke-width="0.5" stroke-linecap="butt"/><path d="M367.5,174.8125v-124h113v124z" fill="#caceca" stroke="#000000" stroke-width="2" stroke-linecap="butt"/><path d="M425.5,53.8125l-1,121" fill="none" stroke="#000000" stroke-width="2" stroke-linecap="round"/><path d="M369.5,114.8125l111,-1" fill="none" stroke="#000000" stroke-width="2" stroke-linecap="round"/><path d="M461.5,91.8125l-23,9l7,-8l-3,-13l10,-6z" fill="#000000" stroke="#000000" stroke-width="2" stroke-linecap="round"/><path d="M415.5,149.8125l-17,8l-10,-23l4,-14l6,-4l6,13l-7,9z" fill="#000000" stroke="#000000" stroke-width="2" stroke-linecap="round"/><path d="M312.17823,203.24639l3.26225,8.04776l7.84351,19.99135l-24.87025,-1.59674l16.5155,16.98518" fill="none" stroke="#ffffff" stroke-width="0.5" stroke-linecap="round"/><path d="M340.38811,232.61353l-17.47865,-1.48168l15.71116,-14.12097l5.79721,-6.66508" fill="none" stroke="#ffffff" stroke-width="0.5" stroke-linecap="round"/><path d="M332.54801,220.79167l-14.06618,-1.97797" fill="none" stroke="#ffffff" stroke-width="0.5" stroke-linecap="round"/><path d="M319.32385,222.80559l-2.39112,6.89548" fill="none" stroke="#ffffff" stroke-width="0.5" stroke-linecap="round"/><path d="M313.5651,230.79917l5.64387,5.08657" fill="none" stroke="#ffffff" stroke-width="0.5" stroke-linecap="round"/><path d="M332.07133,232.26482l-2.98329,8.69457" fill="none" stroke="#ffffff" stroke-width="0.5" stroke-linecap="round"/><path d="M330.12498,231.32052l-1.65837,-5.20192" fill="none" stroke="#ffffff" stroke-width="0.5" stroke-linecap="round"/><path d="M339.83111,233.26019l-1.62023,-15.25052" fill="none" stroke="#ffffff" stroke-width="0.5" stroke-linecap="round"/><path d="M348.33358,235.28953l-9.3252,-2.5127l-8.26196,13.38449l-14.51108,0.17326l6.46925,-14.70334l6.91819,14.06913" fill="none" stroke="#ffffff" stroke-width="0.5" stroke-linecap="round"/><path d="M299.49893,228.8212l15.33334,-16.75556l21.60831,4.92608" fill="none" stroke="#ffffff" stroke-width="0.5" stroke-linecap="round"/><path d="M310.03416,230.51756l6.01219,11.65545" fill="none" stroke="#ffffff" stroke-width="0.5" stroke-linecap="round"/><path d="M297.7895,229.43268l-7.53886,-0.46717" fill="none" stroke="#ffffff" stroke-width="0.5" stroke-linecap="round"/><path d="M336.47297,230.42402l-0.8358,-10.40712" fill="none" stroke="#ffffff" stroke-width="0.5" stroke-linecap="round"/><text transform="translate(103.20106,245.37086) scale(0.83784,0.83784)" font-size="40" xml:space="preserve" fill="url(#color-1)" fill-rule="nonzero" stroke="#400000" stroke-width="1" stroke-linecap="butt" stroke-linejoin="miter" stroke-miterlimit="10" stroke-dasharray="" stroke-dashoffset="0" font-family="Sans Serif" font-weight="normal" text-anchor="start" style="mix-blend-mode: normal"><tspan x="0" dy="0">THE HAUNTED</tspan><tspan x="0" dy="48px">MANSION</tspan></text><path d="M162.08529,244.14608l-10.92534,10.7017l-0.38627,-18.41333l-1.10333,-7.62207" fill="none" stroke="#ffffff" stroke-width="0.5" stroke-linecap="round"/><path d="M151.20022,237.27346l10.99521,7.60851" fill="none" stroke="#ffffff" stroke-width="0.5" stroke-linecap="round"/><path d="M136.3114,268.99583l-2.34146,-19.66306l15.55049,-11.46928" fill="none" stroke="#ffffff" stroke-width="0.5" stroke-linecap="round"/><path d="M254.91447,122.68438l-35.04301,48.89722" fill="none" stroke="#ffffff" stroke-width="0.5" stroke-linecap="round"/><path d="M201.94246,160.17225l-22.00375,-8.14954" fill="none" stroke="#ffffff" stroke-width="0.5" stroke-linecap="round"/><path d="M118.81719,178.10123l7.33458,19.55889" fill="none" stroke="#ffffff" stroke-width="0.5" stroke-linecap="round"/><path d="M177.49387,174.84142l-40.74769,19.55889" fill="none" stroke="#ffffff" stroke-width="0.5" stroke-linecap="round"/><path d="M126.15178,110.46007l30.96824,19.55889" fill="none" stroke="#ffffff" stroke-width="0.5" stroke-linecap="round"/><path d="M140.00599,156.91244l39.93273,-52.15704" fill="none" stroke="#ffffff" stroke-width="0.5" stroke-linecap="round"/><path d="M122.89196,129.20401l149.13653,50.52713l79.86546,-70.08602l-36.0436,106.33878l-11.62322,13.75592" fill="none" stroke="#ffffff" stroke-width="0.5" stroke-linecap="round"/><path d="M304.62663,179.73114l-40.74769,-84.75519" fill="none" stroke="#ffffff" stroke-width="0.5" stroke-linecap="round"/><path d="M172.60415,207.43957l172.77019,-53.78695" fill="none" stroke="#ffffff" stroke-width="0.5" stroke-linecap="round"/><path d="M131.04151,103.94045l224.92723,92.90472" fill="none" stroke="#ffffff" stroke-width="0.5" stroke-linecap="round"/><path d="M259.8042,201.73489l94.53463,-97.79445" fill="none" stroke="#ffffff" stroke-width="0.5" stroke-linecap="round"/><text transform="translate(107.0821,197.80122) scale(3.28698,3.28698)" font-size="40" xml:space="preserve" fill="url(#color-2)" fill-rule="nonzero" stroke="#002929" stroke-width="1" stroke-linecap="butt" stroke-linejoin="miter" stroke-miterlimit="10" stroke-dasharray="" stroke-dashoffset="0" font-family="Malgun Gothic" font-weight="normal" text-anchor="start" style="mix-blend-mode: normal"><tspan x="0" dy="0">ALE</tspan></text></g></g></svg>