<svg version="1.1" xmlns="http://www.w3.org/2000/svg" xmlns:xlink="http://www.w3.org/1999/xlink" width="1025.3591" height="770.3006" viewBox="0,0,1025.3591,770.3006"><defs><linearGradient x1="166.38865" y1="30.06002" x2="75.89941" y2="509.8415" gradientUnits="userSpaceOnUse" id="color-1"><stop offset="0" stop-color="#000000" stop-opacity="0.2022"/><stop offset="1" stop-color="#000000" stop-opacity="0.65323"/></linearGradient><linearGradient x1="-156.30952" y1="299.513" x2="359.30681" y2="299.513" gradientUnits="userSpaceOnUse" id="color-2"><stop offset="0" stop-color="#000000" stop-opacity="0.25857"/><stop offset="1" stop-color="#000000" stop-opacity="0.65323"/></linearGradient><linearGradient x1="584.57282" y1="-93.84564" x2="414.84572" y2="259.05899" gradientUnits="userSpaceOnUse" id="color-3"><stop offset="0" stop-color="#000000" stop-opacity="0.41935"/><stop offset="1" stop-color="#000000" stop-opacity="0.65323"/></linearGradient><linearGradient x1="618.75097" y1="-72.48603" x2="483.67373" y2="263.9674" gradientUnits="userSpaceOnUse" id="color-4"><stop offset="0" stop-color="#000000" stop-opacity="0.41935"/><stop offset="1" stop-color="#000000" stop-opacity="0.65323"/></linearGradient></defs><g transform="translate(259.67955,213.1503)"><g data-paper-data="{&quot;isPaintingLayer&quot;:true}" fill-rule="nonzero" stroke-linejoin="miter" stroke-miterlimit="10" stroke-dasharray="" stroke-dashoffset="0" style="mix-blend-mode: normal"><path d="M-19.00901,371.37757v-382.75511h518.01802v382.75511z" fill="#e6e6e6" stroke="none" stroke-width="0" stroke-linecap="butt"/><g data-paper-data="{&quot;index&quot;:null}" fill="none" stroke-opacity="0.07514" stroke="#000000" stroke-width="5" stroke-linecap="round"><path d="M-17.93028,-56.06295l569.06907,429.42943"/><path d="M-71.48885,-6.20504l569.06907,429.42943"/><path d="M-152.07444,22.81904l569.06907,429.42943"/><path d="M-198.12544,78.83269l569.06907,429.42943"/><path d="M311.88952,554.6503l-569.06907,-429.42943"/><path d="M587.17587,310.98601l-569.06907,-429.42943"/><path d="M664.96496,279.94997l-569.06907,-429.42943"/><path d="M734.46953,242.90796l-569.06907,-429.42943"/><g data-paper-data="{&quot;index&quot;:null}"><path d="M579.84878,-29.36658l-569.06907,429.42943"/><path d="M-42.77887,350.20495l569.06907,-429.42943"/><path d="M445.70466,-108.24851l-569.06907,429.42943"/><path d="M-169.41545,265.16718l569.06907,-429.42943"/><path d="M340.59953,-210.6503l-569.06907,429.42943"/><path d="M46.81681,462.44341l569.06907,-429.42943"/><path d="M693.67498,64.04993l-569.06907,429.42943"/><path d="M763.17955,101.09202l-569.06907,429.42943"/></g></g><path d="M404.62573,323.41686c-24.98791,132.48799 -172.1637,215.95314 -328.72632,186.42463c-156.56262,-29.52851 -263.22499,-160.86884 -238.23708,-293.35683c24.98791,-132.48799 172.1637,-215.95314 328.72632,-186.42463c156.56262,29.52851 263.22499,160.86884 238.23708,293.35683z" fill="none" stroke="url(#color-1)" stroke-width="6" stroke-linecap="butt"/><path d="M359.30681,299.513c0,120.48921 -115.42464,218.16502 -257.80816,218.16502c-142.38352,0 -257.80816,-97.67581 -257.80816,-218.16502c0,-120.48921 115.42465,-218.16501 257.80816,-218.16501c142.38352,0 257.80816,97.6758 257.80816,218.16501z" fill="none" stroke="url(#color-2)" stroke-width="6" stroke-linecap="butt"/><path d="M426.20061,264.52004c-20.95134,-75.83633 -14.34747,-152.06379 25.02452,-215.04923l-0.00002,0.00001c40.15216,-64.23352 107.614,-103.8648 186.965,-117.52956" data-paper-data="{&quot;index&quot;:null}" fill="none" stroke="url(#color-3)" stroke-width="6" stroke-linecap="butt"/><path d="M455.1914,252.53252c-10.30256,-63.56252 -0.52862,-125.92048 32.44315,-178.97415l-0.00002,0.00001c41.68892,-67.08012 113.13468,-107.49354 196.86386,-119.64848" data-paper-data="{&quot;index&quot;:null}" fill="none" stroke="url(#color-4)" stroke-width="6" stroke-linecap="butt"/><g data-paper-data="{&quot;index&quot;:null}" fill="#3b3b3b" stroke="#3b3b3b" stroke-linecap="butt"><path d="M211.88928,177.01801v-100.90942h511.85943v100.90942z" stroke-width="1.5"/><path d="M150.46622,126.56325c0,-27.86539 26.51791,-50.45472 59.22944,-50.45472c32.71151,0 59.22944,22.58933 59.22944,50.45472c0,27.86537 -26.51791,50.45472 -59.22944,50.45472c-32.71151,0 -59.22944,-22.58935 -59.22944,-50.45472z" stroke-width="1.5"/><text transform="translate(419.66978,149.17858) rotate(-180) scale(1.58768,-1.58768)" font-size="40" xml:space="preserve" fill="#3b3b3b" fill-rule="nonzero" stroke="#3b3b3b" stroke-width="3" stroke-linecap="butt" stroke-linejoin="miter" stroke-miterlimit="10" stroke-dasharray="" stroke-dashoffset="0" font-family="&quot;ヒラギノ角ゴ Pro W3&quot;, &quot;Hiragino Kaku Gothic Pro&quot;, Osaka, &quot;メイリオ&quot;, Meiryo, &quot;ＭＳ Ｐゴシック&quot;, &quot;MS PGothic&quot;" font-weight="normal" text-anchor="start" style="mix-blend-mode: normal"><tspan x="0" dy="0">DRIFT</tspan></text></g><path d="M210.41806,166.86709v-100.90942h511.85943v100.90942z" data-paper-data="{&quot;index&quot;:null}" fill="#01b1e2" stroke="#01b1e2" stroke-width="1.5" stroke-linecap="butt"/><path d="M151.1886,116.41247c0,-27.86539 26.51791,-50.45472 59.22944,-50.45472c32.71151,0 59.22944,22.58933 59.22944,50.45472c0,27.86537 -26.51791,50.45472 -59.22944,50.45472c-32.71151,0 -59.22944,-22.58935 -59.22944,-50.45472z" fill="#01b1e2" stroke="#01b1e2" stroke-width="1.5" stroke-linecap="butt"/><g data-paper-data="{&quot;index&quot;:null}" fill="#3b3b3b" stroke="#3b3b3b" stroke-linecap="butt"><path d="M-247.36999,306.89261v-101.44292h514.56556v101.44292z" stroke-width="1.5"/><path d="M269.40086,306.89261c-32.88447,0 -59.54259,-22.70878 -59.54259,-50.72147c0,-28.0127 26.65813,-50.72146 59.54259,-50.72146c32.88445,0 59.54258,22.70876 59.54258,50.72146c0,28.01269 -26.65811,50.72147 -59.54258,50.72147z" stroke-width="1.5"/><text transform="translate(58.31667,278.9061) scale(1.59607,1.59607)" font-size="40" xml:space="preserve" fill="#3b3b3b" fill-rule="nonzero" stroke="#3b3b3b" stroke-width="3" stroke-linecap="butt" stroke-linejoin="miter" stroke-miterlimit="10" stroke-dasharray="" stroke-dashoffset="0" font-family="&quot;ヒラギノ角ゴ Pro W3&quot;, &quot;Hiragino Kaku Gothic Pro&quot;, Osaka, &quot;メイリオ&quot;, Meiryo, &quot;ＭＳ Ｐゴシック&quot;, &quot;MS PGothic&quot;" font-weight="normal" text-anchor="start" style="mix-blend-mode: normal"><tspan x="0" dy="0">DRIFT</tspan></text></g><path d="M-246.77027,297.27529v-101.44292h514.56556v101.44292z" data-paper-data="{&quot;index&quot;:null}" fill="#f23962" stroke="#f23962" stroke-width="1.5" stroke-linecap="butt"/><path d="M270.00059,297.27529c-32.88447,0 -59.54259,-22.70878 -59.54259,-50.72147c0,-28.01271 26.65812,-50.72148 59.54259,-50.72148c32.88447,0 59.54258,22.70878 59.54258,50.72149c0,28.01269 -26.65811,50.72147 -59.54258,50.72147z" data-paper-data="{&quot;index&quot;:null}" fill="#f23962" stroke="#f23962" stroke-width="1.5" stroke-linecap="butt"/><text transform="translate(11.99764,347.49293) scale(0.5,0.5)" font-size="40" xml:space="preserve" fill="#000000" fill-rule="nonzero" stroke="#000000" stroke-width="1" stroke-linecap="butt" stroke-linejoin="miter" stroke-miterlimit="10" stroke-dasharray="" stroke-dashoffset="0" font-family="Sans Serif" font-weight="normal" text-anchor="start" style="mix-blend-mode: normal"><tspan x="0" dy="0">DRIFT | COLLIDE| CUSTOMIZE</tspan></text><text transform="translate(209.50004,137.27475) scale(1.52757,1.52757)" font-size="40" xml:space="preserve" fill="#ffffff" fill-rule="nonzero" stroke="#ffffff" stroke-width="4" stroke-linecap="butt" stroke-linejoin="miter" stroke-miterlimit="10" stroke-dasharray="" stroke-dashoffset="0" font-family="&quot;ヒラギノ角ゴ Pro W3&quot;, &quot;Hiragino Kaku Gothic Pro&quot;, Osaka, &quot;メイリオ&quot;, Meiryo, &quot;ＭＳ Ｐゴシック&quot;, &quot;MS PGothic&quot;" font-weight="normal" text-anchor="start" style="mix-blend-mode: normal"><tspan x="0" dy="0">ALE</tspan></text><text transform="translate(55.50003,262.27474) scale(1.52757,1.52757)" font-size="40" xml:space="preserve" fill="#ffffff" fill-rule="nonzero" stroke="#ffffff" stroke-width="4" stroke-linecap="butt" stroke-linejoin="miter" stroke-miterlimit="10" stroke-dasharray="" stroke-dashoffset="0" font-family="&quot;ヒラギノ角ゴ Pro W3&quot;, &quot;Hiragino Kaku Gothic Pro&quot;, Osaka, &quot;メイリオ&quot;, Meiryo, &quot;ＭＳ Ｐゴシック&quot;, &quot;MS PGothic&quot;" font-weight="normal" text-anchor="start" style="mix-blend-mode: normal"><tspan x="0" dy="0">CHASE</tspan></text></g></g></svg>